<svg xmlns="http://www.w3.org/2000/svg" viewBox="0 0 82.8 78.86"><title>botão home - casinha Ativo 11</title><g id="Camada_2" data-name="Camada 2"><g id="Camada_1-2" data-name="Camada 1"><path d="M68.21,78.86H54.15a6.34,6.34,0,0,1-6.33-6.33V56.67a1.93,1.93,0,0,0-1.93-1.93h-9.5a1.93,1.93,0,0,0-1.93,1.93V72.53a6.34,6.34,0,0,1-6.33,6.33H14.59a6.34,6.34,0,0,1-6.33-6.33v-24a1.93,1.93,0,0,0-1.92-1.93A6.33,6.33,0,0,1,1.93,35.77L37,1.8a6.29,6.29,0,0,1,8.81,0l35.06,34a6.33,6.33,0,0,1-4.41,10.88,1.93,1.93,0,0,0-1.92,1.93v24A6.34,6.34,0,0,1,68.21,78.86ZM36.39,50.34h9.5a6.34,6.34,0,0,1,6.33,6.33V72.53a1.94,1.94,0,0,0,1.93,1.93H68.21a1.93,1.93,0,0,0,1.92-1.93v-24a6.34,6.34,0,0,1,6.33-6.33h0a1.93,1.93,0,0,0,1.35-3.31L42.74,5a1.91,1.91,0,0,0-2.68,0L5,38.94a1.93,1.93,0,0,0,1.35,3.31,6.34,6.34,0,0,1,6.33,6.33v24a1.93,1.93,0,0,0,1.92,1.93H28.13a1.94,1.94,0,0,0,1.93-1.93V56.67A6.34,6.34,0,0,1,36.39,50.34Z"/></g></g></svg>