<svg xmlns="http://www.w3.org/2000/svg" viewBox="0 0 73.4 78.9"><title>botão perfilAtivo 15</title><g id="Camada_2" data-name="Camada 2"><g id="Camada_1-2" data-name="Camada 1"><path d="M66.82,78.9H6.58A6.59,6.59,0,0,1,0,72.32,24.9,24.9,0,0,1,24.88,47.45H48.52A24.9,24.9,0,0,1,73.4,72.32,6.59,6.59,0,0,1,66.82,78.9ZM24.88,51.85A20.5,20.5,0,0,0,4.4,72.32,2.19,2.19,0,0,0,6.58,74.5H66.82A2.18,2.18,0,0,0,69,72.32,20.49,20.49,0,0,0,48.52,51.85Z"/><path d="M36.7,43.41A21.71,21.71,0,1,1,58.4,21.7,21.74,21.74,0,0,1,36.7,43.41Zm0-39A17.31,17.31,0,1,0,54,21.7,17.33,17.33,0,0,0,36.7,4.4Z"/></g></g></svg>