<svg xmlns="http://www.w3.org/2000/svg" viewBox="0 0 380.18 542.49"><defs><style>.cls-1,.cls-2{fill:#fff;}.cls-1{fill-rule:evenodd;}.cls-2{font-size:65.9px;font-family:Montserrat-ExtraBoldItalic, Montserrat;font-weight:800;font-style:italic;}.cls-3{letter-spacing:0.01em;}</style></defs><title>botão masculinoAtivo 5</title><g id="Camada_2" data-name="Camada 2"><g id="Camada_1-2" data-name="Camada 1"><rect width="379.31" height="542.49" rx="58.62"/><path class="cls-1" d="M114.19,68.3C100.41,71.21,85.37,83.19,79.45,96c-3.08,6.66-3.55,9-3.55,17.85a182.69,182.69,0,0,0,2.44,24.54c3.45,20.28,2.83,25.18-5.69,44.75C61.49,208.78,62,203.55,62.19,296.58V378H154l2.6-14.8c4.32-22.8,10.47-37.75,18.92-46,9.58-9.35,17.84-9.29,35.6.26,9.77,5.25,13.25,6.45,22,7.57,12.08,1.55,27.43.23,51-4.39,8.34-1.63,17.51-3.33,20.38-3.79,8.57-1.35,9.05-1.73,11.82-9.16,2.51-6.74,2.66-8.76,2.61-35.95-.06-39.64-2.79-59.27-12.6-90.58-6.34-20.26-8.26-22.75-21.82-28.26-4.05-1.64-10.06-4.47-13.37-6.28-8.59-4.7-15.18-4.49-20.61.66-8.14,7.71-9.75,15.5-4.14,20,1.86,1.49,3.14,3.39,2.84,4.24s1.2,4,3.34,7c3.35,4.75,4.68,5.64,9.63,6.5,12.65,2.19,15.85,2.38,17.11,1,2.2-2.36,2.87-1.6,4.32,4.94q3.75,16.91-8.89,51.74a164.7,164.7,0,0,0-6.06,21.79l-1.9,10.33-4.86-6.1c-9.36-11.73-22.05-17.06-38.59-16.21-7.18.37-11.51,1.29-15.2,3.23L203,258.51l3.58-3.4a57,57,0,0,1,5.47-4.66c1.56-1-.15-3-10-11.49-6.52-5.63-14.71-11.78-18.19-13.67-8.36-4.53-19.62-5.4-31.9-2.45-8.56,2.06-9,2-11.31-.15-5.46-5.24-8.08-16.42-5.53-23.65,1-2.88.7-3.92-2.32-7.64-1.93-2.36-3.5-4.8-3.5-5.4a12.53,12.53,0,0,0-.74-3.18c-.4-1.13,2.14,1,5.65,4.83,5,5.41,7.82,7.34,13.05,9,10.5,3.3,18,.33,18-7.13,0-2,.53-3.56,1.19-3.56s1.68-1.41,2.29-3.14,1.64-3.13,2.29-3.13,1.19-2,1.19-4.38c0-3.6.43-4.39,2.4-4.39,6.5,0,8.4-4.94,5.74-15-.87-3.27-.61-6.89,1.08-15,1.23-5.89,2.55-12.86,2.95-15.48s1.49-5.09,2.43-5.47c1.78-.74,7.45-10.32,7.45-12.59,0-.72-1.7-2.05-3.77-3s-11.84-7.55-21.7-14.75C149,75.18,140.16,70.34,129.91,68.29c-7.7-1.53-8.4-1.53-15.72,0"/><text class="cls-2" transform="translate(62.15 472.55) scale(0.93 1)">Ho<tspan class="cls-3" x="96.94" y="0">m</tspan><tspan x="166.27" y="0">em</tspan></text></g></g></svg>