<svg xmlns="http://www.w3.org/2000/svg" viewBox="0 0 20.68 27.57"><defs><style>.cls-1{fill:#1a1a1a;}.cls-2{fill:#3ec9c8;}</style></defs><title>copo de água Ativo 10</title><g id="Camada_2" data-name="Camada 2"><g id="Camada_1-2" data-name="Camada 1"><path class="cls-1" d="M3.23,27.57a1.07,1.07,0,0,1-.68-1c-.13-1.53-.3-3-.45-4.58-.17-1.73-.35-3.46-.52-5.19l-.51-5.09C.92,10.19.76,8.67.6,7.14l-.39-4C.15,2.48.09,1.84,0,1.2-.08.39.25,0,1.07,0H19.68a.89.89,0,0,1,1,1.09l-.06.62c-.18,1.75-.35,3.5-.53,5.24l-.57,5.65L19,17.71c-.18,1.89-.38,3.77-.57,5.65-.11,1.09-.23,2.18-.32,3.27a1,1,0,0,1-.72.94Z"/><path class="cls-2" d="M10.31,25.85H4.5c-.21,0-.29-.05-.31-.27-.16-1.72-.34-3.43-.51-5.14l-.45-4.53c-.17-1.72-.35-3.44-.52-5.16-.09-1-.19-1.91-.29-2.87,0-.18,0-.26.21-.32a10.79,10.79,0,0,1,3.28-.5A6.12,6.12,0,0,1,9.62,8.3a8.79,8.79,0,0,0,3,1.57,9.1,9.1,0,0,0,3.78.18,10,10,0,0,0,1.45-.28c.2-.06.23,0,.21.19-.1,1-.2,2-.29,3-.16,1.52-.31,3.05-.47,4.57-.17,1.73-.34,3.46-.52,5.2-.09.95-.2,1.9-.27,2.86,0,.26-.11.3-.34.3Z"/></g></g></svg>