<svg xmlns="http://www.w3.org/2000/svg" viewBox="0 0 188.3 293.79"><defs><style>.cls-1{fill:#fb7200;}.cls-2{fill:#ffb600;}</style></defs><title>fogo nivel iniciante Ativo 1</title><g id="Camada_2" data-name="Camada 2"><g id="Camada_1-2" data-name="Camada 1"><path class="cls-1" d="M185.92,216.16c-5.5,3.18-20.5,11.4-29.88,15.45a1.72,1.72,0,0,1-2.11-2.54,80.14,80.14,0,0,0,9.59-21.2c4.87-16.26,3.15-37.35-3.09-53.13-3.35-8.45-12.07-17-23.44-32a214.33,214.33,0,0,1-40.7-93.93c-.61-3.58-1.11-7-1.46-10a67.66,67.66,0,0,1-.31-7c-.07-3.23,1-10.09.08-11.46-.53-.83-2.53,0-5,2.66-.86,1.32-30.45,48-40.17,114.56-.34,2.34-1.17,8.18-3.32,6.07C26.25,104.11,16.3,99,13.51,97.56A1.24,1.24,0,0,0,11.76,99c.8,2.91-.17,31.85-4.67,45.26-.56,1.67-1.08,3.34-1.5,5-2.48,10.26-15,51,8.15,100.65,8.73,18.74,19.36,31.33,37.64,39.32h0A234.23,234.23,0,0,0,133,290.75h0a19.43,19.43,0,0,0,6.67-2.29c24.19-13.89,38.21-34.81,46.1-63a57.88,57.88,0,0,0,2.48-10C188.41,214.11,188.13,214.72,185.92,216.16Z"/><path class="cls-2" d="M130.05,291.45c9.19-9.21,27.57-20.34,35.17-48.19.3-1.11,1.62-7.55.54-6.78-9.4,6.69-19.94,13.56-32.14,18.17-2,.75-3.33,1.36-4.2.57-1.77-1.58,3.48-7.84,4.87-10.87,11.75-25.53,3.43-42.13,1.45-48.65-.64-2.13-1.25-4.27-2.1-6.33-5.93-14.38-18.08-29.78-25.33-43.74a182.22,182.22,0,0,1-14-36h0l-1.21-11.4c-.33-2-3,.68-4.24,2.26a39,39,0,0,0-4.27,6.3c-4,9-12.73,25.17-15.92,47-1.08,7.4-2.79,24.94-5.85,20.91-33.87-44.57-31.23-37.15-31.29-36.16a232.27,232.27,0,0,1-3.22,26.65A138.84,138.84,0,0,0,25.93,188c-.3,25.65,1.36,70,33.23,102.42a30.59,30.59,0,0,0,5.57,1.05,224.37,224.37,0,0,0,51.6,1.42l5.58-.48s7.54-.63,8.77-1.45Z"/></g></g></svg>