<svg xmlns="http://www.w3.org/2000/svg" viewBox="0 0 276.89 409.02"><defs><style>.cls-1{fill:#fb7200;}.cls-2{fill:#ffb600;}.cls-3{fill:#ffdd58;}</style></defs><title>fogo nivel intermediárioAtivo 2</title><g id="Camada_2" data-name="Camada 2"><g id="Camada_1-2" data-name="Camada 1"><path class="cls-1" d="M274.76,252.08h0c-8.45,9-27.31,40.68-57.8,48.15h-.06a4,4,0,0,1-3.64-5.57c1-2.28,2.29-5.25,3.73-8.53A103.26,103.26,0,0,0,222.75,219l-.06-.22A70.65,70.65,0,0,0,212,196.86c-6.29-8.68-61.79-95.58-65.41-106.09-9.14-24.06-13.88-47.13-12.82-72.22.16-3.92-.2-9.34-.2-16.94,0-6.33-10.33,7.75-13.49,11.55C105.35,30.74,94.18,50.47,83.37,70.42c-7.53,13.87-16.91,37.72-20.81,53-5.26,20.59-7.08,31.72-10.94,45.3h0C36.84,151.89,20.33,141,0,134.91H0c10.18,9.52,12.28,42.23,12.25,46.4h0C12,201.62,4.4,262.38,4.4,262.38c-7.92,63,5.64,90.77,23.94,114.08,2.34,3,14.42,16,21.09,19.46,25.35,13.33,91.29,14.62,111.22,10.4,15.37-3.25,43-1.44,86.41-50.91l5.45-7S285.42,305.42,274.76,252.08Z"/><path class="cls-2" d="M214.71,331.39c-5.5,3.18-20.5,11.4-29.88,15.44a1.72,1.72,0,0,1-2.11-2.53,80.3,80.3,0,0,0,9.59-21.2c4.87-16.26,3.15-37.35-3.09-53.13-3.35-8.45-12.07-17-23.44-32A214.45,214.45,0,0,1,125.08,144c-.61-3.58-1.1-7-1.46-10-.27-2.32-.27-4.65-.31-7-.06-3.24,1-10.09.08-11.46-.53-.84-2.53,0-5,2.66-.86,1.31-30.46,48-40.18,114.56-.34,2.34-1.17,8.18-3.32,6.07-19.87-19.49-29.82-24.64-32.61-26a1.24,1.24,0,0,0-1.75,1.45c.8,2.91-.17,31.85-4.67,45.26-.56,1.67-1.08,3.34-1.5,5-2.48,10.26-15,51,8.15,100.65,8.73,18.74,19.36,31.33,37.64,39.32h0A234.23,234.23,0,0,0,161.81,406h0a19.43,19.43,0,0,0,6.67-2.29c24.2-13.89,38.21-34.82,46.11-63a59.85,59.85,0,0,0,2.48-10C217.2,329.34,216.92,330,214.71,331.39Z"/><path class="cls-3" d="M158.84,406.68c9.19-9.21,27.57-20.34,35.17-48.19.3-1.11,1.63-7.55.54-6.78-9.4,6.69-19.93,13.56-32.14,18.17-2,.75-3.32,1.36-4.2.57-1.76-1.58,3.48-7.84,4.88-10.87,11.74-25.53,3.42-42.13,1.44-48.66-.64-2.12-1.25-4.26-2.1-6.32-5.93-14.38-18.08-29.78-25.33-43.74a182.46,182.46,0,0,1-14-36h0l-1.2-11.4c-.34-2-3,.67-4.25,2.26a38.56,38.56,0,0,0-4.27,6.3c-4,9-12.73,25.17-15.92,47-1.08,7.4-2.78,24.94-5.85,20.91-33.86-44.57-31.23-37.16-31.29-36.16a232.27,232.27,0,0,1-3.22,26.65,138.83,138.83,0,0,0-2.34,22.82c-.3,25.66,1.36,70,33.23,102.43a31.62,31.62,0,0,0,5.57,1.05,224.37,224.37,0,0,0,51.6,1.42l5.58-.48s7.54-.63,8.77-1.45Z"/></g></g></svg>