<svg xmlns="http://www.w3.org/2000/svg" viewBox="0 0 332.27 481.73"><defs><style>.cls-1{fill:#e50304;}.cls-2{fill:#fb7200;}.cls-3{fill:#ffb600;}.cls-4{fill:#ffdd58;}</style></defs><title>fogo nivel intermediárioAtivo 3</title><g id="Camada_2" data-name="Camada 2"><g id="Camada_1-2" data-name="Camada 1"><path class="cls-1" d="M332,323c-1.17-18.28-13-59.52-18.21-62.43-5.64,43.07-22.45,58.89-22.45,58.89-8.28,6.1-5.65-6.81-5.7-9.77C284.84,255.83,228,170.33,227,169.06c0-.1-10.05-15.62-11.78-18.48C193.6,114.86,179.06,78.18,184,34.33c.83-7.38,3.19-24.56,4.63-33.06.79-4.61-10.65,4.62-13.31,7.28C132.21,51.36,101,101.26,85.57,160.45c-4.38,13.35-8.78,26.66-13.52,41.09-20.94-21.19-44.83-33.9-72-41.24,22.51,28.81,20,61.32,17.6,94.33-.86,11.65-5.17,43.17-5.88,48C8.81,322.66,7.14,342.79,9,362.91c4.2,45.36,28.81,81.33,68.95,103.91a37.09,37.09,0,0,0,8.72,3.44c1.16.3,2.55.64,4.1,1.09A246.07,246.07,0,0,0,237,468.77h0c24.3-6.23,42.81-21.57,57.44-40.63C318,397.42,334.61,364.2,332,323Z"/><path class="cls-2" d="M307.27,324.79h0c-8.46,9-27.32,40.68-57.8,48.15h-.06a4,4,0,0,1-3.64-5.57c1-2.28,2.29-5.25,3.73-8.53a103.26,103.26,0,0,0,5.76-67.18s0-.12-.06-.21a70.81,70.81,0,0,0-10.74-21.88c-6.29-8.68-61.79-95.58-65.41-106.09-9.14-24-13.88-47.13-12.82-72.22.15-3.92-.2-9.34-.2-16.93,0-6.33-10.33,7.74-13.5,11.54-14.68,17.58-25.84,37.32-36.66,57.27-7.52,13.87-16.9,37.72-20.8,53-5.26,20.59-7.09,31.72-10.94,45.3h0c-14.79-16.83-31.29-27.74-51.62-33.82h0c10.18,9.52,12.28,42.23,12.25,46.41h0c-.25,20.3-7.85,81.06-7.85,81.06-7.93,63,5.64,90.77,23.94,114.08,2.34,3,14.42,16,21.09,19.47C107.29,482,173.23,483.25,193.15,479c15.37-3.25,43-1.44,86.42-50.91l5.45-6.95S317.93,378.13,307.27,324.79Z"/><path class="cls-3" d="M247.22,404.1c-5.5,3.18-20.5,11.4-29.88,15.45a1.72,1.72,0,0,1-2.11-2.54,80,80,0,0,0,9.59-21.2c4.87-16.26,3.15-37.34-3.09-53.12-3.35-8.46-12.07-17-23.44-32a214.35,214.35,0,0,1-40.7-93.92c-.61-3.59-1.11-7-1.46-10.05-.28-2.31-.27-4.65-.32-7-.06-3.23,1-10.09.09-11.46-.53-.83-2.53,0-5,2.66-.86,1.32-30.45,48-40.17,114.56-.34,2.34-1.17,8.18-3.32,6.08C87.55,292.05,77.6,286.9,74.81,285.5A1.25,1.25,0,0,0,73.06,287c.8,2.91-.17,31.86-4.67,45.27-.56,1.66-1.08,3.33-1.5,5-2.48,10.27-15,51,8.15,100.65,8.73,18.75,19.36,31.33,37.64,39.33h0a234.23,234.23,0,0,0,81.64,1.46h0A19.43,19.43,0,0,0,201,476.4c24.19-13.89,38.21-34.81,46.1-63a58,58,0,0,0,2.48-10C249.71,402.06,249.43,402.66,247.22,404.1Z"/><path class="cls-4" d="M191.34,479.4c9.19-9.22,27.58-20.35,35.18-48.2.3-1.11,1.62-7.55.54-6.78-9.4,6.69-19.94,13.57-32.14,18.18-2,.74-3.33,1.35-4.2.56-1.77-1.58,3.48-7.84,4.87-10.87,11.75-25.53,3.43-42.13,1.45-48.65-.64-2.13-1.25-4.27-2.1-6.33-5.93-14.38-18.08-29.78-25.33-43.74a182.22,182.22,0,0,1-14-36h0l-1.21-11.4c-.33-2-3,.68-4.24,2.26a38.59,38.59,0,0,0-4.27,6.31c-4,9-12.73,25.16-15.92,47-1.08,7.4-2.79,24.94-5.85,20.91-33.87-44.57-31.23-37.15-31.29-36.16a232,232,0,0,1-3.22,26.65A138.84,138.84,0,0,0,87.23,376c-.3,25.65,1.36,70,33.23,102.42a30.59,30.59,0,0,0,5.57,1.05,224.37,224.37,0,0,0,51.6,1.42l5.58-.48s7.54-.63,8.77-1.45Z"/></g></g></svg>