<svg xmlns="http://www.w3.org/2000/svg" viewBox="0 0 67.06 81.16"><defs><style>.cls-1{fill:#35a59f;}</style></defs><title>foguinho - meta Ativo 9</title><g id="Camada_2" data-name="Camada 2"><g id="Camada_1-2" data-name="Camada 1"><path class="cls-1" d="M67.06,47.46v.18A33.53,33.53,0,0,1,0,47.64v0a20.57,20.57,0,0,1,1.05-6.46c.14-.4.28-.81.43-1.2s.41-1,.63-1.45c.81-1.76,3.6-8.19,5.12-11.64.56-1.29.94-2.16,1-2.22.18-.29.38-.12.6.35.79,1.73,1.75,7.67,2.12,10.16a.76.76,0,0,0,1.22.49c6.15-4.9,10.08-14.2,12.08-20.22a47.71,47.71,0,0,0,1.57-5.64A59.59,59.59,0,0,0,27,.5a.54.54,0,0,1,.82-.42C30.62,2,39.57,10.23,40.14,11.23a28.67,28.67,0,0,1,3.41,4.4c3.9,6.18,4.71,12.23,5.79,12.08.91-.12,1.35-5.12,1.58-8.74,0-.8.09-1.53.12-2.12a.64.64,0,0,1,1.14-.38c1.43,1.74,3.93,5,5.94,7.48A43.41,43.41,0,0,1,64,33.66a36.51,36.51,0,0,1,1.47,3.89c.19.6.37,1.19.54,1.79v0c.15.59.28,1.2.41,1.81v0A48.75,48.75,0,0,1,67.06,47.46Z"/></g></g></svg>