<svg xmlns="http://www.w3.org/2000/svg" viewBox="0 0 176.92 160"><defs><style>.cls-1{fill:gray;}</style></defs><title>icon idade - boloAtivo 6</title><g id="Camada_2" data-name="Camada 2"><g id="Camada_1-2" data-name="Camada 1"><path class="cls-1" d="M88.49,160H8.92c-4.42,0-7.31-2.15-8.5-6.29s.35-9.07,3.63-11.18c2.21-1.44,4.68-1.26,7.1-1.12,1.73.09,2.21-.39,2.19-2.19-.1-10.54-.07-21.08,0-31.62a4.27,4.27,0,0,0-1.13-3.19,10.76,10.76,0,0,1-2.66-7.72c0-7,0-14,0-20.94C9.65,66,16.6,59.07,26.38,59c5.09-.06,10.19-.09,15.28,0,1.61,0,2.08-.35,2.07-2-.09-9.28,0-18.56,0-27.85,0-1.12-.18-2.41.47-3.26,1.46-1.89.91-3.31-.28-5.08a7.28,7.28,0,0,1-.61-5.88A43.06,43.06,0,0,1,48.14,2.7c2.17-3.58,4.6-3.58,6.77,0a41.09,41.09,0,0,1,5,12.59,8.31,8.31,0,0,1-1.64,7.1c-.45.58-.85,1-.21,1.76a7.29,7.29,0,0,1,1.32,4.94c0,9.29,0,18.57,0,27.85,0,1.51.32,2.06,1.94,2q8.16-.15,16.33,0c1.62,0,2-.5,1.94-2-.07-9.14,0-18.28,0-27.43,0-2,.06-3.94,1.44-5.52.64-.73.09-1.1-.28-1.58a8.84,8.84,0,0,1-1.45-8.11A43.54,43.54,0,0,1,83.89,2.74c2.2-3.61,4.56-3.65,6.76-.07a40.6,40.6,0,0,1,4.92,12.38A8.19,8.19,0,0,1,94,22.35a1.33,1.33,0,0,0-.09,2,7.07,7.07,0,0,1,1.25,4.53c0,9.43,0,18.85,0,28.27,0,1.45.35,1.88,1.83,1.86q8.28-.15,16.54,0c1.52,0,1.83-.47,1.82-1.88-.06-9.29,0-18.57,0-27.85,0-.91-.24-2,.21-2.67,1.7-2.42.93-4.42-.41-6.65-.91-1.52-.67-3.38-.24-5.12a43.28,43.28,0,0,1,4.9-12.16c2.13-3.49,4.55-3.53,6.66-.05a40.09,40.09,0,0,1,5.09,13.19,7.82,7.82,0,0,1-1.65,6.48c-.61.78-.79,1.31-.11,2.15a6.57,6.57,0,0,1,1.15,4.35c0,9.29.06,18.57-.06,27.85,0,2,.6,2.4,2.45,2.37,5.65-.12,11.3-.06,17,0,10.22,0,17.22,7.07,17.22,17.24,0,8.17,0,16.34,0,24.5a10.78,10.78,0,0,1-3,7.81,2.93,2.93,0,0,0-.81,2.25c0,9.64,0,19.27,0,28.9,0,1.37.39,1.89,1.78,1.73a23.69,23.69,0,0,1,2.92,0c5.26,0,8.6,3.73,8.57,9.47,0,5.55-3.41,9.17-8.64,9.17Zm-.1-18.64h0q34,0,68.06.05c1.75,0,2.19-.47,2.17-2.18q-.12-12.78,0-25.55c0-1.47-.34-1.82-1.83-1.79-6.63.15-11.3-4.53-11.36-11.21,0-2.09.07-4.19,0-6.28A6,6,0,0,0,133.49,94c-.1,1,0,2-.08,2.93A10.87,10.87,0,0,1,124,107.13a11.06,11.06,0,0,1-11.78-6.77c-.89-2.15-.75-4.37-.8-6.6A6,6,0,0,0,107.72,88c-4.11-1.59-8.17,1.2-8.21,5.77-.08,6.84,0,13.68,0,20.52A10.85,10.85,0,0,1,86.84,125a10.72,10.72,0,0,1-9.32-10.68c-.07-7,0-14,0-20.94,0-3.86-2.47-6.33-6.06-6.29s-5.82,2.51-5.9,6.23c0,.9,0,1.81,0,2.72,0,2.58.11,5.17-.09,7.74-.44,5.45-5.32,9.6-11.08,9.61a10.79,10.79,0,0,1-10.71-9.77c-.22-3,0-6.14-.26-9.19a5.62,5.62,0,0,0-6.05-5.13,5.86,5.86,0,0,0-5.74,5.54c-.07.76,0,1.53,0,2.3a10.7,10.7,0,0,1-11.49,11.07c-1.47-.06-1.71.39-1.7,1.71q.07,14.77,0,29.53c0,1.55.38,2,2,2Q54.37,141.31,88.39,141.36ZM88.72,64h0q-31.1,0-62.19,0c-7.2,0-11.85,4.75-11.89,12,0,3.7,0,7.4,0,11.1,0,3.42-.09,6.84,0,10.26a5.73,5.73,0,0,0,6.07,5.81,5.81,5.81,0,0,0,5.79-5.9c0-.56,0-1.12,0-1.68,0-6.46,4.68-11.37,10.84-11.43,6.34-.06,11.11,4.7,11.25,11.26,0,2.3,0,4.6,0,6.91a5.92,5.92,0,1,0,11.84-.08c0-3.08,0-6.15,0-9.22a10.88,10.88,0,0,1,1.08-4.85,11.08,11.08,0,0,1,12.38-6,11,11,0,0,1,8.61,10.73c.08,6.84,0,13.68,0,20.52A7.17,7.17,0,0,0,83,116.5a6,6,0,0,0,6.73,3.41,5.62,5.62,0,0,0,4.66-5.62c0-6.91,0-13.82,0-20.73a11,11,0,0,1,21.86-2.11,31,31,0,0,1,.23,5,5.92,5.92,0,0,0,11.84,0c0-1,0-2,.07-2.93a11,11,0,0,1,22,.62c0,2.3,0,4.6,0,6.9a5.57,5.57,0,0,0,3.27,5.2c4.14,2,8.5-.71,8.57-5.51.1-8.09,0-16.19,0-24.29,0-7.86-4.63-12.45-12.5-12.45Zm0,82.39H9.36c-3,0-4.13,1.05-4.25,3.88C5,153.67,6.21,155,9.64,155H167.09c.63,0,1.26,0,1.88,0a2.48,2.48,0,0,0,2.21-1.36,5.83,5.83,0,0,0,.17-5.43c-.77-1.74-2.33-1.71-3.91-1.7ZM123.07,5.2a39.34,39.34,0,0,0-4.26,11.19,4,4,0,0,0,1.9,4.29,4,4,0,0,0,4.69,0,4,4,0,0,0,1.92-4.29A40.4,40.4,0,0,0,123.07,5.2ZM87.3,5.09a43.67,43.67,0,0,0-4.22,11.1A4.13,4.13,0,0,0,83.41,19a4.41,4.41,0,0,0,5.11,2.22,4.18,4.18,0,0,0,3-4.66C91,12.62,89.24,9.07,87.3,5.09Zm-35.78,0a42.8,42.8,0,0,0-4.2,11.07,4.11,4.11,0,0,0,1.86,4.51,4,4,0,0,0,4.71,0,4.11,4.11,0,0,0,1.85-4.54A43.48,43.48,0,0,0,51.52,5.12Zm3.35,43.53c-6.62,2.52-6.82,2.8-6.65,8.74a1.33,1.33,0,0,1,0,.2c-.23,1.84,1.26,1.6,2,1.3,1.51-.57,4.13,1.74,4.53-1.31C55.18,54.72,54.87,51.76,54.87,48.65Zm35.74-.2c-2.18,1.15-4,2.13-5.86,3.06-.47.25-.82.51-.81,1.08,0,2-.56,4.38.3,5.94.67,1.23,3.22.24,4.92.43,1,.12,1.5-.2,1.47-1.35C90.56,54.68,90.61,51.76,90.61,48.45Zm35.75,0-5.56,2.91c-.5.26-1.07.5-1,1.17.08,2.07-.8,4.53.37,6.08.85,1.11,3.29.2,5,.33.9.07,1.24-.27,1.23-1.17C126.33,54.79,126.36,51.8,126.36,48.46Zm-78.14-1c2.13-1.11,4-2.09,5.81-3A1.44,1.44,0,0,0,54.89,43c0-2,0-3.91,0-5.86,0-1-.23-1.32-1.2-.8-1.58.87-3.18,1.73-4.8,2.52-.65.32-.67.81-.67,1.37Zm35.71,0L90,44.32a1.14,1.14,0,0,0,.59-1.21c0-2,0-4,0-6,0-.9-.13-1.36-1.15-.78q-2.35,1.32-4.78,2.51a1.25,1.25,0,0,0-.76,1.31C83.94,42.45,83.93,44.79,83.93,47.49ZM126.38,35.7c-2.38,1.28-4.76,2-6.35,3.62-1,1-.21,3.2-.29,4.86,0,.55,0,1.11,0,1.66,0,1.08.19,1.64,1.39.94,1.38-.8,2.8-1.54,4.23-2.24.62-.3,1-.64,1-1.38C126.37,40.81,126.38,38.46,126.38,35.7ZM83.93,30.92c0,.69,0,1.39,0,2.08-.14,1.45.29,1.74,1.58,1s2.8-1.51,4.21-2.24c1.63-.84.67-2.33.86-3.51a2,2,0,0,0-1.32-2.14c-3.12-1.3-5.31.19-5.32,3.58Zm-35.71-.07c0,.7.05,1.4,0,2.09-.12,1.31.12,1.89,1.53,1s2.81-1.51,4.23-2.24.84-2.2.88-3.35c0-1-.33-2.11-1.45-2.27-3.44-.51-5.59-.46-5.19,3.48A10.41,10.41,0,0,1,48.22,30.85Zm71.52-.15h0c0,.83,0,1.67,0,2.5-.07,1.25.33,1.45,1.41.82,1.38-.8,2.81-1.53,4.25-2.21,1.61-.75.82-2.15.94-3.29a2.15,2.15,0,0,0-1.27-2.39c-3-1.32-5.3.11-5.33,3.32C119.73,29.87,119.74,30.28,119.74,30.7Z"/></g></g></svg>