<svg xmlns="http://www.w3.org/2000/svg" viewBox="0 0 79.71 79.71"><title>botão treino Ativo 13</title><g id="Camada_2" data-name="Camada 2"><g id="Camada_1-2" data-name="Camada 1"><path d="M42.4,14.24A3.72,3.72,0,0,0,42.4,9L37.54,4.12a3.72,3.72,0,0,0-5.26,0L31,5.35,26.78,1.09a3.73,3.73,0,0,0-5.27,0L16.67,5.94,14.29,3.56A3.72,3.72,0,0,0,9,3.56L3.57,9a3.73,3.73,0,0,0,0,5.27l2.37,2.37L1.09,21.51a3.74,3.74,0,0,0,0,5.27L5.35,31,4.12,32.27a3.74,3.74,0,0,0,0,5.27L9,42.4a3.73,3.73,0,0,0,5.26,0L23,33.69,46,56.76l-8.71,8.71a3.71,3.71,0,0,0,0,5.26l4.85,4.86a3.74,3.74,0,0,0,5.27,0l1.23-1.23,4.26,4.27a3.74,3.74,0,0,0,5.27,0L63,73.78,65.31,76a3.72,3.72,0,0,0,5.26,0L76,70.57a3.72,3.72,0,0,0,0-5.26l-2.26-2.26,4.84-4.85a3.71,3.71,0,0,0,0-5.26l-4.26-4.27,1.23-1.24a3.71,3.71,0,0,0,0-5.26l-4.85-4.86a3.75,3.75,0,0,0-5.27,0L56.76,46,33.68,23ZM7.16,11.67l4.5-4.51,1.89,1.89-4.5,4.5ZM4.68,24.15,24.14,4.68l3.79,3.79-4.37,4.36L20.45,16l-4.51,4.5-3.11,3.12L8.47,27.93ZM11.61,38.8,7.72,34.91l2.64-2.65a3.41,3.41,0,0,0,.85-.63l4.84-4.84,3.12-3.11,4.5-4.51,3.12-3.11,4.84-4.85a3.65,3.65,0,0,0,.64-.85l2.64-2.64,3.89,3.89ZM72.44,67.94l-4.5,4.51-1.78-1.78,4.5-4.51ZM75,55.57,55.57,75l-3.79-3.78,4.37-4.37,3.11-3.11,4.51-4.51,3.11-3.11,4.36-4.37ZM68.1,40.91,72,44.8l-2.65,2.65a3.6,3.6,0,0,0-.85.63l-4.84,4.85L60.54,56,56,60.55l-3.12,3.11L48.08,68.5a3.6,3.6,0,0,0-.63.85L44.81,72l-3.9-3.89ZM53.64,49.14l-4.5,4.51L26.06,30.57l4.51-4.5Z"/></g></g></svg>