<svg xmlns="http://www.w3.org/2000/svg" viewBox="0 0 379.31 542.49"><defs><style>.cls-1,.cls-2{fill:#fff;}.cls-1{fill-rule:evenodd;}.cls-2{font-size:65.9px;font-family:Montserrat-ExtraBoldItalic, Montserrat;font-weight:800;font-style:italic;}.cls-3{letter-spacing:0.01em;}</style></defs><title>botão femininoAtivo 4</title><g id="Camada_2" data-name="Camada 2"><g id="Camada_1-2" data-name="Camada 1"><rect width="379.31" height="542.49" rx="58.62"/><path class="cls-1" d="M292.38,70.46c-5.22,2.94-15.7,14-15.7,16.64,0,2.32-5.39,1-9.38-2.26-12-9.86-30.14-14.48-44.15-11.24-21,4.87-41.82,25.27-51.44,50.45-4.54,11.87-4.56,15.76-.1,19.71,1.9,1.68,5.24,6.54,7.42,10.81,3.76,7.34,3.93,8.24,3.13,16.78l-.84,9h4.37s4.49.13,5.13,2.88c.42,1.81,1.53,3.29,2.46,3.29a1.9,1.9,0,0,1,1.7,2c0,1.13,1.66,2.67,3.7,3.44,2.62,1,4.48,3.16,6.4,7.5,3.47,7.84,7.46,10.07,14.39,8.05C225.09,206,234.75,196.26,236,191c.4-1.74,1.19-3.16,1.74-3.16,1.8,0-1.15,8.28-4.66,13.08a37.29,37.29,0,0,0-5,10.31c-1.9,7-7.63,14.19-12.75,16-2.15.76-10.35,2.56-18.23,4-14.5,2.66-22.91,6.15-31.14,12.92l-4,3.29,3.56,2.34c3.15,2.07,6,5.19,4.74,5.19-.26,0-3.44-1-7.09-2.24-4.09-1.38-10.82-2.25-17.59-2.28-13.13-.06-18.87,2.37-36.4,15.44-6.14,4.57-11.81,8.73-12.59,9.24-1.07.69-1.26-1.53-.76-8.75.44-6.21-.09-15.21-1.48-25.1-2.48-17.72-2-33.95,1.23-42.59,1.15-3.08,2.28-5.6,2.5-5.6a37.71,37.71,0,0,1,4.67,2.72c3.63,2.31,5,2.51,8.87,1.34a24.51,24.51,0,0,1,9.3-.56c4.26.74,5.14.35,9.49-4.24,2.64-2.78,4.8-6,4.8-7.19s1.78-3,4-4c3.26-1.54,4-2.7,4.28-6.49.65-9.39-9-21.06-17.44-21.06-2.17,0-7.44,1.13-11.71,2.5a105.28,105.28,0,0,1-13.57,3.38c-5.18.78-6.39,1.64-10.85,7.7-10.85,14.76-21,43-27.41,76.6-2.78,14.48-3.3,20.55-3.38,39.49-.08,18.36.3,23.6,2.11,29.19,3.22,10,4.16,10.48,14.62,7.84,4.83-1.22,20.36-3.06,34.5-4.09,28.69-2.09,30.78-2.67,59.46-16.48,10.79-5.2,14.69-6.55,15.4-5.32.52.91-.11,5.29-1.39,9.74a106,106,0,0,0-3.07,16.95c-.68,8.11-.42,9.58,3,17.13a44.72,44.72,0,0,0,10.56,14.59c7.1,6.63,10.43,12.26,12.76,21.62l1.4,6H305l1.21-75.79-.34-75.16-4.14-8.24c-2.47-4.91-9.59-14.47-17.59-23.61-14-15.95-17-21.09-17-29.17V164l6.2,7c3.41,3.85,5.83,5.82,5.37,4.37-2.75-8.71-2.24-12.25,3.21-22,5.22-9.32,5.34-9.82,5.31-20.77,0-9.11-.66-12.82-3.33-19.8-4-10.41-3.35-16.17,1.84-16.84,4.4-.56,6.68,3.61,9,16.39,4.26,23.73,5.78,29.82,9.56,38.3A51.07,51.07,0,0,0,314,165.28c3.17,3.14,5.94,5.51,6.16,5.26s-.42-4.59-1.41-9.66c-1.25-6.4-1.95-20.28-2.28-45.42-.25-19.91-.49-37.28-.51-38.61s-1.64-4.13-3.6-6.25c-4.58-4.94-11.62-5.13-19.76-.55"/><text class="cls-2" transform="translate(75.42 472.55) scale(0.93 1)">Mul<tspan class="cls-3" x="129.1" y="0">h</tspan><tspan x="175.43" y="0">er</tspan></text></g></g></svg>