<svg xmlns="http://www.w3.org/2000/svg" viewBox="0 0 69.2 78.76"><defs><style>.cls-1{fill:#020202;}</style></defs><title>botão dieta -  maçãAtivo 12</title><g id="Camada_2" data-name="Camada 2"><g id="Camada_1-2" data-name="Camada 1"><path class="cls-1" d="M22.5,0c.9.21,1.82.35,2.7.63A16,16,0,0,1,36.4,12.14c.05.16.1.33.19.6.79-.81,1.43-1.66,2.21-2.39a20.79,20.79,0,0,1,14-5.73A2.31,2.31,0,1,1,53,9.23a16,16,0,0,0-12.53,6.14,15.65,15.65,0,0,0-3.3,7.5,4.53,4.53,0,0,0,0,.53c0,.05,0,.09,0,.14.27,0,.4-.21.55-.36,3.6-3.49,8-4.54,12.85-4.3a18.88,18.88,0,0,1,10.8,3.88,18.56,18.56,0,0,1,6.86,11.3A45.72,45.72,0,0,1,67.5,56,40.72,40.72,0,0,1,59.34,72a19.19,19.19,0,0,1-8.3,6,11.09,11.09,0,0,1-8.59-.32A20.61,20.61,0,0,0,37,75.79a14.59,14.59,0,0,0-8.25,1.06,21.68,21.68,0,0,1-4,1.61,12.64,12.64,0,0,1-9.93-2.11,28.11,28.11,0,0,1-9-10.4A46,46,0,0,1,.39,49.17a39.9,39.9,0,0,1,1.4-17.71C4.12,24.54,9,20.37,16.2,18.91a17.76,17.76,0,0,1,9.61.62,15.17,15.17,0,0,1,5.4,3.29c.33.32.67.62,1.11,1a33.45,33.45,0,0,1,.62-3.46,1.7,1.7,0,0,0,0-.22c.15-.54.57-1.39.38-1.56-.41-.38-1.15-.12-1.76-.13-2.74-.08-5.48.16-8.22-.16a16.12,16.12,0,0,1-14-13.78,15.85,15.85,0,0,1-.14-1.68C9.22,1.2,9.62.6,11.12,0ZM64.58,43.39a38.61,38.61,0,0,0-1-8.84,13.5,13.5,0,0,0-5.92-8.72,15.24,15.24,0,0,0-9.82-2.33,10.59,10.59,0,0,0-6.9,3,8.84,8.84,0,0,1-12.67,0,10,10,0,0,0-4.2-2.59,14,14,0,0,0-9.41.26A13.42,13.42,0,0,0,6.4,32.23,30,30,0,0,0,4.7,42a42.14,42.14,0,0,0,5,21.58,24,24,0,0,0,7.16,8.6A8.39,8.39,0,0,0,23.57,74,19,19,0,0,0,27,72.56,19.13,19.13,0,0,1,37.46,71.2a22,22,0,0,1,6.66,2.23,6.77,6.77,0,0,0,5.8.12,17,17,0,0,0,7.34-6.34C62.29,60.07,64.45,52,64.58,43.39ZM14.06,4.58a11.54,11.54,0,0,0,7.61,8.63c3.37,1.19,6.89.41,10.36.67a11.45,11.45,0,0,0-8.58-8.94C20.39,4.29,17.28,4.77,14.06,4.58Z"/></g></g></svg>