<svg xmlns="http://www.w3.org/2000/svg" viewBox="0 0 83.12 82.66"><title>botão relatório - grafico Ativo 14</title><g id="Camada_2" data-name="Camada 2"><g id="Camada_1-2" data-name="Camada 1"><path d="M12.93,49.85H5.85A5.86,5.86,0,0,0,0,55.7v27H18.78v-27A5.85,5.85,0,0,0,12.93,49.85Zm-7.08,3.9h7.08a2,2,0,0,1,2,2V78.76H3.9V55.7A2,2,0,0,1,5.85,53.75Z"/><path d="M34.66,34.89H27.59a5.87,5.87,0,0,0-5.86,5.86V82.66H40.52V40.75A5.87,5.87,0,0,0,34.66,34.89Zm-7.07,3.9h7.07a2,2,0,0,1,2,2v38h-11v-38A2,2,0,0,1,27.59,38.79Z"/><path d="M56,42.4H48.92a5.86,5.86,0,0,0-5.85,5.86v34.4H61.85V48.26A5.86,5.86,0,0,0,56,42.4ZM47,78.76V48.26a2,2,0,0,1,2-2H56a2,2,0,0,1,2,2v30.5Z"/><path d="M77.27,28.45H70.19a5.85,5.85,0,0,0-5.85,5.85V82.66H83.12V34.3A5.85,5.85,0,0,0,77.27,28.45Zm-9,5.85a2,2,0,0,1,2-2h7.08a2,2,0,0,1,2,2V78.76h-11Z"/><path d="M9.39,39.39a9,9,0,0,0,9-8.7L27,24.27a9,9,0,0,0,9.15-.47l7.47,4.5a8.89,8.89,0,0,0,8.89,7.63,9,9,0,0,0,9-9c0-.17,0-.35,0-.53L71.1,17.6A9,9,0,1,0,64.74,9a8.06,8.06,0,0,0,.08,1.2l-9.16,8.35a9.07,9.07,0,0,0-8.07.84L40,14.8a9,9,0,0,0-17.84.94l-8.8,6.58a8.83,8.83,0,0,0-4-.92,9,9,0,0,0,0,18Zm0-14.09a5.13,5.13,0,0,1,3,.94l1.16.83L26.1,17.65l-.06-1a2.91,2.91,0,0,1,0-.3,5.1,5.1,0,0,1,10.19-.24l0,1,11.7,7,1.07-1a5.08,5.08,0,0,1,6-.63l1.24.72L69.14,11.51l-.32-1.15A5.33,5.33,0,0,1,68.63,9a5.09,5.09,0,1,1,2.89,4.6L70.34,13,57.27,24.94l.2,1.07a4.88,4.88,0,0,1,.09.93,5.1,5.1,0,0,1-10.19.14l0-1.06L35.69,19l-1.07,1a5.09,5.09,0,0,1-6.58.35l-1.17-.89L14.36,28.83l.1,1.08a4.15,4.15,0,0,1,0,.49,5.1,5.1,0,1,1-5.1-5.1Z"/></g></g></svg>