<svg xmlns="http://www.w3.org/2000/svg" viewBox="0 0 159.76 159.8"><defs><style>.cls-1{fill:gray;stroke:gray;stroke-miterlimit:10;}</style></defs><title>icon peso - balançaAtivo 7</title><g id="Camada_2" data-name="Camada 2"><g id="Camada_1-2" data-name="Camada 1"><path class="cls-1" d="M85.56,65.85c.43.09.84.19,1.27.31C86.4,66,86,65.94,85.56,65.85ZM79,65.25l-1,0Zm0,0h0Zm.89,0h0Zm1.14,0h0Zm.17,0q.61,0,1.23.09Q81.79,65.29,81.17,65.26Zm-1.2,0c.35,0,.69,0,1,0C80.66,65.24,80.32,65.23,80,65.23Zm-5.13.48c-.56.11-1.12.23-1.67.38C73.72,66,74.28,65.82,74.84,65.71ZM63.43,69.92c-.36.1-.72.19-1.08.26C62.71,70.11,63.07,70,63.43,69.92Zm-3.79.53h.23c-.43,0-.86,0-1.29,0C58.93,70.44,59.28,70.45,59.64,70.45Zm-4.58-.84c-.36-.14-.72-.3-1.07-.47C54.34,69.31,54.7,69.47,55.06,69.61Z"/><path class="cls-1" d="M158.47,18.9C155.67,7.74,146.19.52,134.34.51H25.63a25.28,25.28,0,0,0-18,7,25.12,25.12,0,0,0-7.11,18c0,35.27,0,71.85,0,108.71,0,14.51,10.57,25,25.11,25H134.13c14.55,0,25.11-10.53,25.12-25,0-20.91,0-42.17,0-62.74v-46A27.24,27.24,0,0,0,158.47,18.9Zm-6.65,47.41q0,34,0,67.94c0,10.45-7.21,17.6-17.68,17.61H25.63C15.16,151.85,8,144.68,8,134.25q0-54.36,0-108.71a20.07,20.07,0,0,1,.86-5.92c.08-.28.18-.56.27-.83a17,17,0,0,1,.67-1.58q.18-.37.39-.75l.2-.37.44-.7c.15-.24.31-.47.47-.69s.33-.44.51-.65a12.75,12.75,0,0,1,1.1-1.22A17.74,17.74,0,0,1,25.63,7.94h108.7c8.45,0,15,4.92,16.94,12.78a19.94,19.94,0,0,1,.56,4.83Q151.82,45.92,151.82,66.31Z"/><path class="cls-1" d="M80.67,23.81c12,.74,24.29,2.45,35.56,8.42,8.23,4.37,9.91,12.35,4.25,19.74-3.24,4.24-6.62,8.38-9.68,12.75-4.24,6.08-11.45,7.2-17.52,4a27.49,27.49,0,0,0-26.72,0c-6.45,3.38-13.62,1.93-17.78-4.18-3-4.35-6.41-8.37-9.54-12.61-2.32-3.14-3.93-6.55-3.19-10.66.6-3.38,2.72-5.69,5.34-7.6,4.76-3.46,10.25-5.21,15.87-6.6A111.53,111.53,0,0,1,80.67,23.81ZM85.1,59.44A36.73,36.73,0,0,1,96.93,63.3c2.94,1.56,5.6,1.37,7.43-.92,4.15-5.18,8.2-10.45,12.07-15.83,1.81-2.5,1.17-5.23-1.17-7.34-1.82-1.64-4.11-2.43-6.29-3.41-.74-.33-1,.06-1.35.64-.73,1.38-1.42,2.78-2.27,4.08a3,3,0,0,1-4.09,1,3.09,3.09,0,0,1-1.39-4.14,29.17,29.17,0,0,1,1.54-2.93c.4-.67.56-1-.47-1.28a96.78,96.78,0,0,0-17.08-2.73c-.76-.05-.87.22-.86.84,0,1.37,0,2.74,0,4.1a3.12,3.12,0,0,1-6.24,0c-.05-1.3-.06-2.61,0-3.91,0-.89-.26-1.09-1.12-1-1.67.23-3.36.3-5,.5a76.52,76.52,0,0,0-12.77,2.53c.72,1.34,1.42,2.5,2,3.72a3.1,3.1,0,0,1-1.38,4.31,3,3,0,0,1-4.18-1.24,23.41,23.41,0,0,1-1.85-3.41c-.55-1.27-1.28-1.39-2.4-.8-1.38.72-2.83,1.31-4.19,2.05-3.75,2-4.58,5.7-2,9.14q5.25,7,10.63,14c2.53,3.27,5,3.79,8.67,1.85a35,35,0,0,1,13.34-3.87,2.56,2.56,0,0,0,2.31-1.62c2.32-4.34,4.67-8.67,7.09-13,1.43-2.55,4.38-2.59,5.76-.18.72,1.25.29,2.34-.32,3.48C89.25,51.74,87.23,55.5,85.1,59.44Z"/></g></g></svg>